<?xml version="1.0" encoding="UTF-8" standalone="no"?>
<svg
   xmlns:dc="http://purl.org/dc/elements/1.1/"
   xmlns:cc="http://creativecommons.org/ns#"
   xmlns:rdf="http://www.w3.org/1999/02/22-rdf-syntax-ns#"
   xmlns:svg="http://www.w3.org/2000/svg"
   xmlns="http://www.w3.org/2000/svg"
   xmlns:sodipodi="http://sodipodi.sourceforge.net/DTD/sodipodi-0.dtd"
   xmlns:inkscape="http://www.inkscape.org/namespaces/inkscape"
   width="35.2214mm"
   height="35.8141mm"
   viewBox="0 0 416 423"
   version="1.1"
   id="svg3"
   sodipodi:docname="EventsIcon.svg"
   inkscape:version="1.0.2 (e86c870879, 2021-01-15)">
  <metadata
     id="metadata9">
    <rdf:RDF>
      <cc:Work
         rdf:about="">
        <dc:format>image/svg+xml</dc:format>
        <dc:type
           rdf:resource="http://purl.org/dc/dcmitype/StillImage" />
      </cc:Work>
    </rdf:RDF>
  </metadata>
  <defs
     id="defs7" />
  <sodipodi:namedview
     pagecolor="#ffffff"
     bordercolor="#666666"
     borderopacity="1"
     objecttolerance="10"
     gridtolerance="10"
     guidetolerance="10"
     inkscape:pageopacity="0"
     inkscape:pageshadow="2"
     inkscape:window-width="1857"
     inkscape:window-height="1057"
     id="namedview5"
     showgrid="false"
     inkscape:zoom="6.575041"
     inkscape:cx="66.560128"
     inkscape:cy="67.680186"
     inkscape:window-x="55"
     inkscape:window-y="-8"
     inkscape:window-maximized="1"
     inkscape:current-layer="svg3" />
  <path
     id="Selection"
     fill="black"
     stroke="black"
     stroke-width="1"
     d="M 72.00,46.00            C 72.00,46.00 22.00,46.00 22.00,46.00              6.18,46.02 0.02,54.85 0.00,70.00              0.00,70.00 0.00,128.00 0.00,128.00              0.00,128.00 0.00,400.00 0.00,400.00              0.01,408.91 1.85,417.08 11.00,421.01              17.44,423.78 30.65,423.00 38.00,423.00              38.00,423.00 91.00,423.00 91.00,423.00              91.00,423.00 391.00,423.00 391.00,423.00              405.94,422.98 414.97,418.14 415.00,402.00              415.00,402.00 415.00,304.00 415.00,304.00              415.00,304.00 415.00,68.00 415.00,68.00              414.98,54.00 408.34,46.02 394.00,46.00              394.00,46.00 334.00,46.00 334.00,46.00              334.00,46.00 334.00,16.00 334.00,16.00              333.98,4.23 330.77,1.02 319.00,1.00              319.00,1.00 259.00,1.00 259.00,1.00              254.50,1.01 250.80,0.76 247.42,4.34              244.35,7.59 244.05,11.79 244.00,16.00              244.00,16.00 244.00,46.00 244.00,46.00              244.00,46.00 162.00,46.00 162.00,46.00              162.00,46.00 162.00,16.00 162.00,16.00              161.95,12.24 161.73,8.31 159.30,5.21              154.91,-0.38 145.43,1.00 139.00,1.00              139.00,1.00 87.00,1.00 87.00,1.00              81.52,1.01 77.14,0.88 73.74,6.04              71.73,9.08 72.01,12.53 72.00,16.00              72.00,16.00 72.00,46.00 72.00,46.00 Z            M 377.00,197.00            C 377.00,197.00 377.00,384.00 377.00,384.00              377.00,384.00 39.00,384.00 39.00,384.00              39.00,384.00 39.00,197.00 39.00,197.00              39.00,197.00 377.00,197.00 377.00,197.00 Z            M 254.00,278.53            C 246.20,281.04 244.11,285.10 244.00,293.00              244.00,293.00 244.00,340.00 244.00,340.00              244.05,350.65 246.47,355.93 258.00,356.00              258.00,356.00 319.00,356.00 319.00,356.00              324.86,355.99 329.65,356.04 332.69,349.98              334.60,346.18 334.00,336.57 334.00,332.00              334.00,332.00 334.00,294.00 334.00,294.00              333.98,281.18 329.33,278.02 317.00,278.00              317.00,278.00 277.00,278.00 277.00,278.00              277.00,278.00 254.00,278.53 254.00,278.53 Z" />
</svg>
