<?xml version="1.0" encoding="UTF-8" standalone="no"?>
<svg
   xmlns:dc="http://purl.org/dc/elements/1.1/"
   xmlns:cc="http://creativecommons.org/ns#"
   xmlns:rdf="http://www.w3.org/1999/02/22-rdf-syntax-ns#"
   xmlns:svg="http://www.w3.org/2000/svg"
   xmlns="http://www.w3.org/2000/svg"
   xmlns:sodipodi="http://sodipodi.sourceforge.net/DTD/sodipodi-0.dtd"
   xmlns:inkscape="http://www.inkscape.org/namespaces/inkscape"
   width="39.2854mm"
   height="35.8987mm"
   viewBox="0 0 464 424"
   version="1.1"
   id="svg3"
   sodipodi:docname="HomeIcon.svg"
   inkscape:version="1.0.2 (e86c870879, 2021-01-15)">
  <metadata
     id="metadata9">
    <rdf:RDF>
      <cc:Work
         rdf:about="">
        <dc:format>image/svg+xml</dc:format>
        <dc:type
           rdf:resource="http://purl.org/dc/dcmitype/StillImage" />
      </cc:Work>
    </rdf:RDF>
  </metadata>
  <defs
     id="defs7" />
  <sodipodi:namedview
     pagecolor="#ffffff"
     bordercolor="#666666"
     borderopacity="1"
     objecttolerance="10"
     gridtolerance="10"
     guidetolerance="10"
     inkscape:pageopacity="0"
     inkscape:pageshadow="2"
     inkscape:window-width="1857"
     inkscape:window-height="1057"
     id="namedview5"
     showgrid="false"
     inkscape:zoom="6.5595457"
     inkscape:cx="74.240127"
     inkscape:cy="67.840064"
     inkscape:window-x="55"
     inkscape:window-y="-8"
     inkscape:window-maximized="1"
     inkscape:current-layer="svg3" />
  <path
     id="Selection"
     fill="transparent"
     stroke="black"
     stroke-width="1"
     d="M 44.00,238.00            C 44.00,238.00 44.00,410.00 44.00,410.00              44.01,413.51 43.74,417.67 46.01,420.61              50.03,425.82 68.41,424.00 75.00,424.00              75.00,424.00 173.00,424.00 173.00,424.00              185.18,423.98 186.98,420.73 187.00,409.00              187.00,409.00 187.00,322.00 187.00,322.00              187.00,322.00 278.00,322.00 278.00,322.00              278.00,322.00 278.00,412.00 278.00,412.00              278.01,414.92 277.71,418.33 279.60,420.77              283.44,425.75 301.64,424.00 308.00,424.00              308.00,424.00 406.00,424.00 406.00,424.00              409.76,423.99 414.65,424.30 417.57,421.49              419.99,419.16 419.95,416.10 420.00,413.00              420.00,413.00 420.00,381.00 420.00,381.00              420.00,381.00 420.00,238.00 420.00,238.00              435.28,238.00 462.38,240.75 463.90,219.00              464.70,207.55 457.52,199.56 450.00,192.00              450.00,192.00 418.00,161.00 418.00,161.00              418.00,161.00 393.00,136.04 393.00,136.04              393.00,136.04 383.00,126.99 383.00,126.99              383.00,126.99 347.00,91.04 347.00,91.04              347.00,91.04 338.00,82.96 338.00,82.96              338.00,82.96 294.00,39.91 294.00,39.91              276.56,23.67 261.33,0.31 235.00,0.00              211.34,-0.27 202.10,7.90 186.00,24.00              186.00,24.00 166.00,44.00 166.00,44.00              166.00,44.00 150.00,59.01 150.00,59.01              150.00,59.01 115.00,93.96 115.00,93.96              115.00,93.96 105.00,103.01 105.00,103.01              105.00,103.01 70.00,137.96 70.00,137.96              70.00,137.96 47.00,160.00 47.00,160.00              47.00,160.00 25.00,181.96 25.00,181.96              19.07,187.64 15.14,190.22 9.44,197.00              4.16,203.27 -0.54,210.38 0.19,219.00              2.01,240.67 28.58,238.00 44.00,238.00 Z" />
</svg>
