<?xml version="1.0" encoding="UTF-8" standalone="no"?>
<svg
   xmlns:dc="http://purl.org/dc/elements/1.1/"
   xmlns:cc="http://creativecommons.org/ns#"
   xmlns:rdf="http://www.w3.org/1999/02/22-rdf-syntax-ns#"
   xmlns:svg="http://www.w3.org/2000/svg"
   xmlns="http://www.w3.org/2000/svg"
   xmlns:sodipodi="http://sodipodi.sourceforge.net/DTD/sodipodi-0.dtd"
   xmlns:inkscape="http://www.inkscape.org/namespaces/inkscape"
   width="38.3541mm"
   height="35.8987mm"
   viewBox="0 0 453 424"
   version="1.1"
   id="svg3"
   sodipodi:docname="NewsIcon.svg"
   inkscape:version="1.0.2 (e86c870879, 2021-01-15)">
  <metadata
     id="metadata9">
    <rdf:RDF>
      <cc:Work
         rdf:about="">
        <dc:format>image/svg+xml</dc:format>
        <dc:type
           rdf:resource="http://purl.org/dc/dcmitype/StillImage" />
      </cc:Work>
    </rdf:RDF>
  </metadata>
  <defs
     id="defs7" />
  <sodipodi:namedview
     pagecolor="#ffffff"
     bordercolor="#666666"
     borderopacity="1"
     objecttolerance="10"
     gridtolerance="10"
     guidetolerance="10"
     inkscape:pageopacity="0"
     inkscape:pageshadow="2"
     inkscape:window-width="1857"
     inkscape:window-height="1057"
     id="namedview5"
     showgrid="false"
     inkscape:zoom="2.3191496"
     inkscape:cx="-81.554727"
     inkscape:cy="97.683137"
     inkscape:window-x="55"
     inkscape:window-y="-8"
     inkscape:window-maximized="1"
     inkscape:current-layer="svg3" />
  <path
     id="Selection"
     fill="transparent"
     stroke="black"
     stroke-width="1"
     d="M 14.00,0.64            C 4.17,4.34 0.13,10.67 0.00,21.00              0.00,21.00 0.00,98.00 0.00,98.00              0.00,98.00 0.00,401.00 0.00,401.00              0.03,417.51 9.38,423.98 25.00,424.00              25.00,424.00 99.00,424.00 99.00,424.00              99.00,424.00 428.00,424.00 428.00,424.00              443.53,423.98 452.92,417.39 453.00,401.00              453.00,401.00 453.00,331.00 453.00,331.00              453.00,331.00 453.00,23.00 453.00,23.00              452.98,8.08 446.33,0.02 431.00,0.00              431.00,0.00 353.00,0.00 353.00,0.00              353.00,0.00 124.00,0.00 124.00,0.00              124.00,0.00 51.00,0.00 51.00,0.00              51.00,0.00 14.00,0.64 14.00,0.64 Z            M 411.00,42.00            C 411.00,42.00 411.00,381.00 411.00,381.00              411.00,381.00 42.00,381.00 42.00,381.00              42.00,381.00 42.00,42.00 42.00,42.00              42.00,42.00 411.00,42.00 411.00,42.00 Z            M 86.00,80.56            C 70.41,86.00 66.18,104.97 77.10,115.90              82.65,121.45 87.62,121.99 95.00,122.00              95.00,122.00 360.00,122.00 360.00,122.00              373.54,121.98 383.39,116.82 384.67,102.00              385.81,88.88 375.47,80.06 363.00,80.00              363.00,80.00 318.00,80.00 318.00,80.00              318.00,80.00 163.00,80.00 163.00,80.00              163.00,80.00 113.00,80.00 113.00,80.00              113.00,80.00 86.00,80.56 86.00,80.56 Z            M 95.00,155.16            C 79.84,159.07 72.02,169.68 72.00,185.00              72.00,185.00 72.00,249.00 72.00,249.00              72.21,266.79 84.88,276.97 102.00,277.00              102.00,277.00 179.00,277.00 179.00,277.00              197.99,276.97 208.97,264.64 209.00,246.00              209.00,246.00 209.00,187.00 209.00,187.00              208.97,168.37 198.33,155.23 179.00,155.16              179.00,155.16 126.00,155.16 126.00,155.16              126.00,155.16 95.00,155.16 95.00,155.16 Z            M 245.00,155.52            C 224.74,161.10 224.90,184.49 237.02,193.36              241.87,196.92 245.29,196.99 251.00,197.00              251.00,197.00 362.00,197.00 362.00,197.00              368.15,196.99 371.94,196.77 376.96,192.61              385.87,185.22 386.62,169.58 378.53,161.33              373.13,155.81 367.27,155.01 360.00,155.00              360.00,155.00 285.00,155.00 285.00,155.00              285.00,155.00 245.00,155.52 245.00,155.52 Z            M 244.00,231.53            C 234.97,234.23 229.28,240.34 229.02,250.00              228.83,256.63 229.57,261.76 234.33,266.82              239.62,272.45 244.80,272.99 252.00,273.00              252.00,273.00 361.00,273.00 361.00,273.00              367.80,272.99 372.53,272.64 377.82,267.67              387.69,258.40 385.75,240.27 374.00,233.53              369.41,230.90 366.05,231.01 361.00,231.00              361.00,231.00 284.00,231.00 284.00,231.00              284.00,231.00 244.00,231.53 244.00,231.53 Z            M 86.00,306.64            C 66.98,313.81 66.53,336.83 82.00,345.64              86.41,348.14 89.16,347.99 94.00,348.00              94.00,348.00 361.00,348.00 361.00,348.00              366.05,347.99 369.41,348.10 374.00,345.47              385.75,338.73 387.69,320.60 377.82,311.33              372.53,306.36 367.80,306.01 361.00,306.00              361.00,306.00 176.00,306.00 176.00,306.00              176.00,306.00 117.00,306.00 117.00,306.00              117.00,306.00 86.00,306.64 86.00,306.64 Z" />
</svg>
